<?xml version="1.0" encoding="UTF-8"?>
<svg width="17px" height="16px" viewBox="0 0 17 16" version="1.1" xmlns="http://www.w3.org/2000/svg" xmlns:xlink="http://www.w3.org/1999/xlink">
    <!-- Generator: Sketch 52.2 (67145) - http://www.bohemiancoding.com/sketch -->
    <title>2D text</title>
    <desc>Created with Sketch.</desc>
    <g id="Page-1" stroke="none" stroke-width="1" fill="none" fill-rule="evenodd">
        <g id="Artboard" transform="translate(-153.000000, -71.000000)" stroke="#000000">
            <g id="2D-text" transform="translate(153.000000, 71.000000)">
                <rect id="Rectangle" stroke-width="0.3" x="0.15" y="0.15" width="16.7" height="15.7" rx="0.8"></rect>
                <path d="M2,13 L15,13" id="Line" stroke-width="0.3" stroke-linecap="round" stroke-linejoin="round" transform="translate(8.500000, 13.000000) scale(-1, 1) translate(-8.500000, -13.000000) "></path>
                <path d="M2,9.5 L15,9.5" id="Line" stroke-width="0.3" stroke-linecap="round" stroke-linejoin="round" transform="translate(8.500000, 9.500000) scale(-1, 1) translate(-8.500000, -9.500000) "></path>
                <path d="M8,6.5 L14.5,6.5" id="Line" stroke-width="0.3" stroke-linecap="round" stroke-linejoin="round" transform="translate(11.500000, 6.500000) scale(-1, 1) translate(-11.500000, -6.500000) "></path>
                <path d="M8,3.5 L14.5,3.5" id="Line" stroke-width="0.3" stroke-linecap="round" stroke-linejoin="round" transform="translate(11.500000, 3.500000) scale(-1, 1) translate(-11.500000, -3.500000) "></path>
                <g id="font-text" transform="translate(1.850000, 3.000000)" fill="#231F20" fill-rule="nonzero" stroke-width="0.09">
                    <path d="M4.74992461,1.15555161 C4.74139589,0.829884514 4.72452799,0.513972646 4.71069252,0.275215798 C4.70178475,0.120905759 4.5780236,0 4.42905537,0 L0.332428887,0 C0.183365888,0 0.0596047459,0.120905759 0.0506969761,0.275412873 L0.000377553019,1.15377794 C-0.00739305469,1.31262071 0.105659811,1.44801151 0.258608114,1.46229948 L0.335366556,1.46870443 C0.403880573,1.47461669 0.473816042,1.48052895 0.543656748,1.4869339 C0.686560119,1.4973789 0.81486991,1.39726459 0.843014672,1.25113318 L0.923374128,0.825253242 L0.92669085,0.8047574 C0.92830183,0.79490363 0.930576154,0.78032005 0.933134769,0.770564818 C1.00600791,0.765046707 1.39501211,0.766426235 1.77150753,0.770860431 L1.77150753,4.24323046 L1.62509791,4.25002956 C1.47594015,4.25722281 1.357391,4.3839423 1.35521144,4.53854795 L1.35388475,4.70616058 C1.35388475,4.78587758 1.38259809,4.8578101 1.43699234,4.9142722 C1.49091278,4.97034015 1.55914251,5 1.63362663,5 C1.63485855,5 1.63618524,5 1.63741717,5 L1.9385756,4.99862047 C2.08915481,4.99783217 2.23812305,4.99704387 2.37211865,4.99704387 C2.52146594,4.99704387 2.68379583,4.99793071 2.83911322,4.99881755 L3.09942858,5 C3.10009192,5 3.1006605,5 3.10132385,5 C3.25436691,5 3.38040238,4.87101415 3.3826767,4.71138308 C3.38343481,4.65570927 3.38419292,4.59944425 3.38419292,4.54446021 C3.38523532,4.38650428 3.26659141,4.25722281 3.11373787,4.25002956 L2.96675967,4.24372315 L2.97803652,0.776280005 C3.36495593,0.770564818 3.76675321,0.768495526 3.81839932,0.7739151 C3.82465371,0.782980568 3.83052905,0.818651216 3.83242432,0.829687438 L3.89800066,1.23960427 C3.92244965,1.39085964 4.05672954,1.49806866 4.20285487,1.48230263 C4.300177,1.47294155 4.39873104,1.46348193 4.49358932,1.45559891 C4.64056752,1.44160656 4.75333609,1.30996019 4.74992461,1.15555161 Z M4.1820069,1.2598045 C4.14713393,1.26305625 4.11557768,1.23881597 4.10979711,1.20275117 L4.044126,0.792243112 C4.03379677,0.730558512 4.00972684,0.58620078 3.85819999,0.556442395 C3.77954628,0.540873438 3.14027165,0.550037444 2.8687742,0.554471641 L2.76339718,0.556343857 L2.75088839,4.45804265 L3.10407199,4.47331599 C3.14074547,4.47508967 3.16917452,4.50563636 3.16898499,4.54367191 C3.16898499,4.59826179 3.16822688,4.65373852 3.16746878,4.70813133 C3.1669002,4.74606835 3.13932401,4.780458 3.10028145,4.77631942 L2.84006085,4.77513697 C2.68426965,4.77425013 2.5215607,4.77336329 2.37192912,4.77336329 C2.23764923,4.77336329 2.08830194,4.77415159 1.93734367,4.77493989 L1.63561666,4.77631942 C1.6162849,4.77405305 1.60301801,4.77080131 1.58889825,4.75611919 C1.57468372,4.74133854 1.56871362,4.72645934 1.56871362,4.7075401 L1.57004031,4.54140554 C1.57070366,4.50425683 1.59846936,4.47489259 1.63466902,4.47321745 L1.86153286,4.46247684 C1.9315631,4.46247684 1.9863364,4.40286153 1.9863364,4.32669189 L1.9863364,0.550135982 L1.88020127,0.548756454 C1.67039487,0.545997399 0.979474125,0.538015845 0.895987474,0.549938907 C0.745597785,0.572602578 0.72304407,0.714891017 0.714515354,0.768495526 L0.631976338,1.2077766 C0.625248129,1.24265894 0.593691881,1.26620945 0.561377524,1.2642387 C0.492200163,1.25793228 0.42188564,1.25192149 0.352708278,1.24600922 L0.276897471,1.23960427 C0.24041352,1.23625399 0.213216394,1.20353947 0.214922137,1.16599661 L0.265052033,0.288814 C0.267231593,0.251566749 0.296134464,0.223582042 0.33223936,0.223582042 L4.42886584,0.223582042 C4.46430739,0.223582042 4.49387361,0.252256513 4.4959584,0.288715463 C4.50960435,0.52579717 4.52647225,0.839245595 4.53481144,1.1612668 C4.53566431,1.1981199 4.50865671,1.22965196 4.47454185,1.23300225 C4.3801574,1.2409838 4.28075048,1.25034488 4.1820069,1.2598045 Z" id="Shape"></path>
                </g>
            </g>
        </g>
    </g>
</svg>