<?xml version="1.0" encoding="UTF-8"?>
<svg width="20px" height="18px" viewBox="0 0 20 18" version="1.1" xmlns="http://www.w3.org/2000/svg" xmlns:xlink="http://www.w3.org/1999/xlink">
    <!-- Generator: Sketch 52.2 (67145) - http://www.bohemiancoding.com/sketch -->
    <title>2D video</title>
    <desc>Created with Sketch.</desc>
    <g id="Page-1" stroke="none" stroke-width="1" fill="none" fill-rule="evenodd">
        <g id="Artboard" transform="translate(-92.000000, -71.000000)" fill="#231F20" fill-rule="nonzero" stroke="#FFFFFF" stroke-width="0.4">
            <g id="2D-video" transform="translate(93.000000, 72.000000)">
                <path d="M11.7925312,7.59843706 C11.6848125,7.32232415 11.49075,7.10285772 11.2438125,6.97811165 L8.29209375,4.93017108 C7.90396875,4.53426479 7.29534375,4.54169384 6.9148125,4.95462503 C6.67940625,5.21154623 6.5750625,5.58547492 6.6375,5.94206916 L6.65915625,10.1592914 C6.5671875,10.7412334 6.90946875,11.3061505 7.4385,11.4318252 C7.509375,11.4488501 7.58109375,11.4568982 7.65196875,11.4568982 C7.8975,11.4568982 8.136,11.3581538 8.3221875,11.1745945 L11.2429687,9.17184726 C11.4994687,9.04183894 11.6980312,8.81277666 11.8032187,8.52273429 C11.9117812,8.22371516 11.908125,7.89528938 11.7925312,7.59843706 Z M11.165625,8.24228778 C11.1248437,8.35434257 11.0472187,8.44225295 10.94625,8.48992267 L7.93125,10.5527213 L7.873875,10.6019388 C7.7968125,10.6842774 7.68740625,10.7192558 7.583625,10.6935637 C7.4109375,10.6527039 7.3006875,10.4645014 7.33809375,10.2744416 L7.34596875,10.234201 L7.32375,5.8990426 L7.31446875,5.81329902 C7.2894375,5.69814879 7.32121875,5.57525998 7.39771875,5.49230229 C7.45790625,5.42667904 7.53665625,5.39417696 7.61540625,5.39417696 C7.69528125,5.39417696 7.77515625,5.42760767 7.835625,5.49477864 L10.8987187,7.63155822 L10.9465312,7.6591076 C11.0435625,7.70492006 11.1200625,7.78911592 11.1616875,7.89590847 C11.205,8.00734417 11.206125,8.13023299 11.165625,8.24228778 Z M17.2932188,0.0458823529 L0.70678125,0.0458823529 C0.31696875,0.0458823529 0,0.395047553 0,0.823765462 L0,15.2679992 C0,15.6967172 0.31696875,16.0458824 0.70678125,16.0458824 L17.2932188,16.0458824 C17.6830313,16.0458824 18,15.6967172 18,15.2679992 L18,0.823765462 C18,0.395047553 17.6830313,0.0458823529 17.2932188,0.0458823529 Z M17.3134688,0.823765462 L17.3115,2.33093333 L16.11,2.33093333 L16.11,0.8219082 L17.3134688,0.823765462 Z M1.98028125,4.46585565 L0.70171875,4.46585565 L0.7036875,3.0865293 L1.9805625,3.0865293 L1.9805625,4.46585565 L1.98028125,4.46585565 Z M1.98028125,5.22145162 L1.98028125,6.60077798 L0.698625,6.60077798 L0.70059375,5.22145162 L1.98028125,5.22145162 Z M1.98028125,7.35637395 L1.98028125,8.73539076 L0.6958125,8.73539076 L0.69778125,7.35637395 L1.98028125,7.35637395 Z M1.98028125,9.49098673 L1.98028125,10.8703131 L0.69271875,10.8703131 L0.6946875,9.49098673 L1.98028125,9.49098673 Z M1.98028125,11.6259091 L1.98028125,13.0049259 L0.689625,13.0049259 L0.69159375,11.6259091 L1.98028125,11.6259091 Z M2.6668125,0.804264214 L15.4231875,0.821289113 L15.4231875,15.2899768 L2.6668125,15.2899768 L2.6668125,0.804264214 Z M16.11,11.6259091 L17.2982812,11.6259091 L17.2963125,13.0049259 L16.11,13.0049259 L16.11,11.6259091 Z M16.11,10.8703131 L16.11,9.49098673 L17.301375,9.49098673 L17.2994063,10.8703131 L16.11,10.8703131 Z M16.11,8.73539076 L16.11,7.35637395 L17.3041875,7.35637395 L17.3022188,8.73539076 L16.11,8.73539076 Z M16.11,6.60077798 L16.11,5.22145162 L17.3072812,5.22145162 L17.3053125,6.60077798 L16.11,6.60077798 Z M16.11,4.46585565 L16.11,3.0865293 L17.310375,3.0865293 L17.3084063,4.46585565 L16.11,4.46585565 Z M1.98028125,0.803335583 L1.98028125,2.33093333 L0.70453125,2.33093333 L0.70678125,0.801478321 L1.98028125,0.803335583 Z M0.68653125,15.2676897 L0.6885,13.7605218 L1.98028125,13.7605218 L1.98028125,15.2899768 L0.70678125,15.2899768 L0.68653125,15.2676897 Z M16.11,15.2899768 L16.11,13.7605218 L17.2954687,13.7605218 L17.2932187,15.2899768 L16.11,15.2899768 Z" id="Shape"></path>
            </g>
        </g>
    </g>
</svg>