<?xml version="1.0" encoding="UTF-8"?>
<svg width="18px" height="18px" viewBox="0 0 18 18" version="1.1" xmlns="http://www.w3.org/2000/svg" xmlns:xlink="http://www.w3.org/1999/xlink">
    <!-- Generator: Sketch 52.2 (67145) - http://www.bohemiancoding.com/sketch -->
    <title>360°-Video</title>
    <desc>Created with Sketch.</desc>
    <g id="Page-1" stroke="none" stroke-width="1" fill="none" fill-rule="evenodd">
        <g id="Artboard" transform="translate(-205.000000, -103.000000)" fill="#000000" stroke="#FFFFFF" stroke-width="0.3">
            <g id="360°-Video" transform="translate(206.000000, 104.000000)">
                <path d="M13.8796528,14.4704086 C14.8216315,14.1092128 15.3333333,13.6910723 15.3333333,13.3333333 L15.3333333,7.82810492 C13.4237565,9.28428056 8.06572857,9.33333333 8,9.33333333 C7.93427143,9.33333333 2.57624345,9.28428056 0.666666667,7.82810492 L0.666666667,13.3333333 C0.666666667,13.7155316 1.25073285,14.1666735 2.31957055,14.5436596 L4.49133333,12.39 C4.842,12.04 5.39133333,12.0406667 5.742,12.3906667 L7.07,13.6586667 C7.12066667,13.7093333 7.18333333,13.7393333 7.22466667,13.7326667 C7.282,13.732 7.338,13.7046667 7.38733333,13.654 L9.352,11.6146667 C9.70933333,11.258 10.238,11.24 10.588,11.5706667 L13.8796528,14.4704086 Z M13.1478953,14.7133554 L10.1393333,12.0626667 C10.0253333,11.958 9.906,12.004 9.828,12.0813333 L7.86666667,14.1173333 C7.69066667,14.2973333 7.46466667,14.3966667 7.22933333,14.3986667 C6.97066667,14.4053333 6.77466667,14.3066667 6.604,14.1346667 L5.276,12.8666667 C5.17666667,12.7666667 5.05533333,12.7686667 4.962,12.8613333 L3.04173008,14.7661528 C4.28021763,15.0994611 5.96406875,15.3333333 8,15.3333333 C10.1418266,15.3333333 11.8939949,15.0744995 13.1478953,14.7133554 Z M2.34486062,15.254296 C2.31705168,15.2491036 2.28981896,15.2403604 2.2638502,15.2280427 C0.904114933,14.7807641 0,14.1444918 0,13.3333333 L0,6.66666667 C0,5.90333333 0.803333333,5.24066667 2.324,4.75 C2.49866667,4.69266667 2.68666667,4.79 2.74333333,4.96466667 C2.8,5.13933333 2.70466667,5.32733333 2.52866667,5.384 C1.15533333,5.82733333 0.666666667,6.33733333 0.666666667,6.66666667 C0.666666667,7.906 4.938,8.66666667 8,8.66666667 C10.632,8.66666667 15.3333333,7.99866667 15.3333333,6.66666667 C15.3333333,6.25333333 14.6706667,5.78333333 13.5606667,5.40933333 C13.386,5.35066667 13.2926667,5.16133333 13.3513333,4.98733333 C13.41,4.81333333 13.6,4.718 13.7733333,4.778 C15.614,5.39733333 16,6.14733333 16,6.66666667 L16,13.3333333 C16,15.0653333 11.878,16 8,16 C5.97404157,16 3.88148911,15.7449048 2.34486062,15.254296 Z M7,12 C6.44866667,12 6,11.5513333 6,11 C6,10.4486667 6.44866667,10 7,10 C7.55133333,10 8,10.4486667 8,11 C8,11.5513333 7.55133333,12 7,12 Z M7,10.6666667 C6.81666667,10.6666667 6.66666667,10.816 6.66666667,11 C6.66666667,11.184 6.81666667,11.3333333 7,11.3333333 C7.18333333,11.3333333 7.33333333,11.184 7.33333333,11 C7.33333333,10.816 7.18333333,10.6666667 7,10.6666667 Z" id="Combined-Shape"></path>
                <path d="M5.33333333,3.66666667 L5.33333333,2.66666667 L4.33333333,2.66666667 C4.14933333,2.66666667 4,2.51733333 4,2.33333333 C4,2.14933333 4.14933333,2 4.33333333,2 L5.33333333,2 C5.70133333,2 6,2.29933333 6,2.66666667 L6,3.66666667 C6,3.78797003 5.96743045,3.901858 5.91054992,4 C5.96743045,4.098142 6,4.21202997 6,4.33333333 L6,5.33333333 C6,5.70066667 5.70133333,6 5.33333333,6 L4.33333333,6 C4.14933333,6 4,5.85066667 4,5.66666667 C4,5.48266667 4.14933333,5.33333333 4.33333333,5.33333333 L5.33333333,5.33333333 L5.33333333,4.33333333 L4.33333333,4.33333333 C4.14933333,4.33333333 4,4.184 4,4 C4,3.816 4.14933333,3.66666667 4.33333333,3.66666667 L5.33333333,3.66666667 Z M8.33333333,6 L7.33333333,6 C6.96533333,6 6.66666667,5.70066667 6.66666667,5.33333333 L6.66666667,2.66666667 C6.66666667,2.29933333 6.96533333,2 7.33333333,2 L8.66666667,2 C8.85066667,2 9,2.14933333 9,2.33333333 C9,2.51733333 8.85066667,2.66666667 8.66666667,2.66666667 L7.33333333,2.66666667 L7.33333333,3.66666667 L8.33333333,3.66666667 C8.70133333,3.66666667 9,3.966 9,4.33333333 L9,5.33333333 C9,5.70066667 8.70133333,6 8.33333333,6 Z M7.33333333,4.33333333 L7.33333333,5.33333333 L8.33333333,5.33333333 L8.33333333,4.33333333 L7.33333333,4.33333333 Z M11.3333333,6 L10.3333333,6 C9.96533333,6 9.66666667,5.70066667 9.66666667,5.33333333 L9.66666667,2.66666667 C9.66666667,2.29933333 9.96533333,2 10.3333333,2 L11.3333333,2 C11.7013333,2 12,2.29933333 12,2.66666667 L12,5.33333333 C12,5.70066667 11.7013333,6 11.3333333,6 Z M10.3333333,5.33333333 L11.3333333,5.33333333 L11.3333333,2.66666667 L10.3333333,2.66666667 L10.3333333,5.33333333 Z M13.5555556,2 C13.0654815,2 12.6666667,1.55133333 12.6666667,1 C12.6666667,0.448666667 13.0654815,0 13.5555556,0 C14.0456296,0 14.4444444,0.448666667 14.4444444,1 C14.4444444,1.55133333 14.0456296,2 13.5555556,2 Z M13.5555556,0.666666667 C13.3925926,0.666666667 13.2592593,0.816 13.2592593,1 C13.2592593,1.184 13.3925926,1.33333333 13.5555556,1.33333333 C13.7185185,1.33333333 13.8518519,1.184 13.8518519,1 C13.8518519,0.816 13.7185185,0.666666667 13.5555556,0.666666667 Z" id="Combined-Shape" fill-rule="nonzero"></path>
            </g>
        </g>
    </g>
</svg>