<?xml version="1.0" encoding="UTF-8"?>
<svg width="20px" height="16px" viewBox="0 0 20 16" version="1.1" xmlns="http://www.w3.org/2000/svg" xmlns:xlink="http://www.w3.org/1999/xlink">
    <!-- Generator: Sketch 52.2 (67145) - http://www.bohemiancoding.com/sketch -->
    <title>3D model@3x</title>
    <desc>Created with Sketch.</desc>
    <g id="Page-1" stroke="none" stroke-width="1" fill="none" fill-rule="evenodd" stroke-linecap="round" stroke-linejoin="round">
        <g id="Artboard" transform="translate(-92.000000, -105.000000)" fill="#231F20" fill-rule="nonzero" stroke="#FFFFFF" stroke-width="0.1">
            <g id="3D-model" transform="translate(93.000000, 105.000000)">
                <path d="M17.978625,15.1741176 L17.2625625,13.6061765 L16.8688125,13.8026471 L17.2935,14.7326471 L13.7480625,12.8555882 L13.7480625,7.19764706 C13.7480625,7.12 13.7100937,7.04735294 13.647375,7.00558824 C13.6386562,6.99970588 13.6290937,6.99647059 13.6200937,6.99205882 L13.6209375,6.99029412 L9.1400625,4.84147059 L9.1400625,0.953823529 L9.6541875,1.65147059 L9.99984375,1.37294118 L9.09478125,0.145 C9.01209375,0.0326470588 8.8318125,0.0326470588 8.749125,0.145 L7.8440625,1.37294118 L8.18971875,1.65147059 L8.70384375,0.953823529 L8.70384375,4.84235294 L4.2665625,6.99058824 L4.26740625,6.99205882 C4.25840625,6.99647059 4.249125,6.99970588 4.2406875,7.00529412 C4.17796875,7.04705882 4.14,7.11970588 4.14,7.19735294 L4.14,12.9147059 L0.7065,14.7326471 L1.1311875,13.8026471 L0.7374375,13.6061765 L0.021375,15.1741176 C-0.007875,15.2379412 -0.00703125,15.3123529 0.023625,15.3752941 C0.05428125,15.4385294 0.11109375,15.4832353 0.17746875,15.4964706 L1.80984375,15.8214706 L1.8916875,15.3732353 L0.85303125,15.1664706 L4.33940625,13.3205882 L8.87540625,15.5041176 L8.87625,15.5020588 C8.9049375,15.5158824 8.9353125,15.525 8.96653125,15.525 C8.99775,15.525 9.02925,15.5179412 9.0585,15.5038235 L13.608,13.2926471 L17.1469687,15.1664706 L16.1083125,15.3732353 L16.189875,15.8214706 L17.8228125,15.4964706 C17.8891875,15.4832353 17.946,15.4385294 17.9766562,15.3752941 C18.0070312,15.3123529 18.007875,15.2379412 17.978625,15.1741176 Z M4.57621875,7.55382353 L8.748,9.56176471 L8.748,14.9411765 L4.57621875,12.9326471 L4.57621875,7.55382353 Z M8.9443125,9.15411765 L4.87828125,7.19705882 L8.922375,5.23911765 L13.0075312,7.19823529 L8.9443125,9.15411765 Z M13.312125,12.9332353 L9.18421875,14.9394118 L9.18421875,9.54088235 L13.312125,7.55411765 L13.312125,12.9332353 Z" id="Shape"></path>
            </g>
        </g>
    </g>
</svg>