<?xml version="1.0" encoding="UTF-8"?>
<svg width="17px" height="18px" viewBox="0 0 17 18" version="1.1" xmlns="http://www.w3.org/2000/svg" xmlns:xlink="http://www.w3.org/1999/xlink">
    <!-- Generator: Sketch 52.2 (67145) - http://www.bohemiancoding.com/sketch -->
    <title>3D-scene</title>
    <desc>Created with Sketch.</desc>
    <g id="Page-1" stroke="none" stroke-width="1" fill="none" fill-rule="evenodd">
        <g id="Artboard" transform="translate(-32.000000, -102.000000)" fill="#000000">
            <g id="3D-scene" transform="translate(33.000000, 103.000000)">
                <path d="M14.4387483,6.93224829 C14.3689063,10.6189732 11.3852914,13.5965754 7.72631354,13.599997 C7.7251425,13.599999 7.72397132,13.6 7.7228,13.6 C7.72233329,13.6 7.7218666,13.5999998 7.72139993,13.5999995 C7.72093337,13.6 7.72046669,13.6 7.72,13.6 C4.01448,13.6 1,10.5496333 1,6.8 C1,3.05036667 4.01448,-7.10542736e-15 7.72,-7.10542736e-15 C7.72046669,-7.10542736e-15 7.72093337,4.83846897e-08 7.72140003,1.45149387e-07 C7.7218666,1.56152328e-07 7.72233329,-3.55271368e-15 7.7228,-3.55271368e-15 C7.72397206,-3.55271368e-15 7.72514397,9.84800609e-07 7.72631574,2.95399277e-06 C11.3852867,0.00342581005 14.3688967,2.98101792 14.4387479,6.6677339 C14.4414423,6.71160899 14.4428,6.75570154 14.4428,6.8 C14.4428,6.84429247 14.4414424,6.88837908 14.4387483,6.93224829 Z M10.2820223,3.38370541 C9.72423071,1.70148162 8.77623289,0.568572624 7.72545244,0.566669069 C7.72410174,0.566667879 7.72275094,0.566667131 7.72140004,0.566666825 C6.67012039,0.567672567 5.72159088,1.70081332 5.16357772,3.38370541 C5.94884648,3.21118791 6.81197199,3.11666667 7.7228,3.11666667 C8.63362801,3.11666667 9.49675352,3.21118791 10.2820223,3.38370541 Z M10.4680128,4.02202013 C9.63618396,3.80601931 8.70177675,3.68333333 7.7228,3.68333333 C6.74382325,3.68333333 5.80941604,3.80601931 4.9775872,4.02202013 C4.76407478,4.86382168 4.6428,5.80940351 4.6428,6.8 C4.6428,7.79059649 4.76407478,8.73617832 4.9775872,9.57797987 C5.80941604,9.79398069 6.74382325,9.91666667 7.7228,9.91666667 C8.70177675,9.91666667 9.63618396,9.79398069 10.4680128,9.57797987 C10.6815252,8.73617832 10.8028,7.79059649 10.8028,6.8 C10.8028,5.80940351 10.6815252,4.86382168 10.4680128,4.02202013 Z M10.2820406,10.2162393 C9.49673277,10.3887919 8.63359001,10.4833333 7.7228,10.4833333 C6.81197199,10.4833333 5.94884648,10.3888121 5.16357772,10.2162946 C5.72159088,11.8991867 6.67012039,13.0323274 7.72139994,13.0333327 C7.72275094,13.0333329 7.72410174,13.0333321 7.72545244,13.0333309 C8.77624442,13.0314274 9.7242515,11.8984935 10.2820406,10.2162393 Z M13.6203776,5.0073559 C13.026378,3.0093659 11.4660619,1.43046817 9.49158146,0.829388154 C10.104862,1.4535866 10.605805,2.39777972 10.9345134,3.5500519 C12.0715129,3.88217211 13.0035008,4.3880522 13.6203776,5.0073559 Z M13.8791315,6.69453693 C13.8079772,5.67236336 12.7076982,4.75639604 11.0988835,4.21022044 C11.2693837,5.00486179 11.3628,5.87829387 11.3628,6.8 C11.3628,7.72171667 11.2693488,8.59515818 11.0988032,9.38980681 C12.7076616,8.84363443 13.807976,7.92765364 13.8791315,6.90546307 C13.8797097,6.87037752 13.88,6.83522239 13.88,6.8 C13.88,6.76477761 13.8797097,6.72962248 13.8791315,6.69453693 Z M13.6204266,8.59247901 C13.0035086,9.21183092 12.0714374,9.7177543 10.934414,10.0499047 C10.6056176,11.2022629 10.1045564,12.1465144 9.49122706,12.7707197 C11.4659296,12.1697042 13.0264284,10.5906667 13.6204266,8.59247901 Z M1.81723807,8.58460421 C2.41023509,10.5890918 3.97549588,12.1729839 5.95640289,12.7730365 C5.34203634,12.1488597 4.8402209,11.2037132 4.51108658,10.0499481 C3.36917077,9.71639182 2.43404329,9.20756975 1.81723807,8.58460421 Z M1.81723807,5.01539579 C2.43404329,4.39243025 3.36917077,3.88360818 4.51108658,3.5500519 C4.8402209,2.39628678 5.34203634,1.45114026 5.95640289,0.826963535 C3.97549588,1.42701614 2.41023509,3.01090821 1.81723807,5.01539579 Z M4.34671649,4.21022044 C2.68276258,4.77511521 1.5628,5.73558396 1.5628,6.8 C1.5628,7.86441604 2.68276258,8.82488479 4.34671649,9.38977956 C4.17621631,8.59513821 4.0828,7.72170613 4.0828,6.8 C4.0828,5.87829387 4.17621631,5.00486179 4.34671649,4.21022044 Z" id="Combined-Shape" stroke="#FFFFFF" stroke-width="0.3" fill-rule="nonzero"></path>
                <g id="j" transform="translate(5.900000, 4.958333)">
                    <path d="M1.75,1.47569444 C1.73517361,1.47569444 1.72034722,1.472989 1.70625,1.46757812 L0.126388889,0.85270544 C0.0794791667,0.834505208 0.0486111111,0.788758681 0.0486111111,0.737847222 C0.0486111111,0.686935764 0.0794791667,0.641189236 0.126388889,0.622989005 L1.70625,0.00811631944 C1.73444444,-0.00270543981 1.7653125,-0.00270543981 1.79350694,0.00811631944 L3.37336806,0.622989005 C3.42052083,0.641189236 3.45138889,0.686935764 3.45138889,0.737847222 C3.45138889,0.788758681 3.42052083,0.834505208 3.37361111,0.85270544 L1.79375,1.46757812 C1.77965278,1.472989 1.76482639,1.47569444 1.75,1.47569444 Z M0.508715278,0.737847222 L1.75,1.2208912 L2.99128472,0.737847222 L1.75,0.254803241 L0.508715278,0.737847222 Z" id="Shape" fill-rule="nonzero"></path>
                    <path d="M1.75,3.44328704 C1.73517361,3.44328704 1.72034722,3.4405816 1.70625,3.43517072 L0.126388889,2.82029803 C0.0794791667,2.8020978 0.0486111111,2.75635127 0.0486111111,2.70543981 L0.0486111111,0.737847222 C0.0486111111,0.669965278 0.103055556,0.614872685 0.170138889,0.614872685 C0.237222222,0.614872685 0.291666667,0.669965278 0.291666667,0.737847222 L0.291666667,2.62107928 L1.75,3.18872975 L3.20833333,2.62107928 L3.20833333,0.737847222 C3.20833333,0.669965278 3.26277778,0.614872685 3.32986111,0.614872685 C3.39694444,0.614872685 3.45138889,0.669965278 3.45138889,0.737847222 L3.45138889,2.70543981 C3.45138889,2.75635127 3.42052083,2.8020978 3.37361111,2.82029803 L1.79375,3.43517072 C1.77965278,3.4405816 1.76482639,3.44328704 1.75,3.44328704 Z" id="Path"></path>
                    <path d="M1.75,3.44328704 C1.68291667,3.44328704 1.62847222,3.38819444 1.62847222,3.3203125 L1.62847222,1.35271991 C1.62847222,1.28483796 1.68291667,1.22974537 1.75,1.22974537 C1.81708333,1.22974537 1.87152778,1.28483796 1.87152778,1.35271991 L1.87152778,3.3203125 C1.87152778,3.38819444 1.81708333,3.44328704 1.75,3.44328704 Z" id="Path"></path>
                </g>
                <path d="M6.18569066,15.4986863 C5.60186068,15.4805194 5.04367454,15.4425713 4.5185,15.3854155 C3.46033333,15.2773947 0,14.8181586 0,13.4451725 C0,12.8849989 0.571083333,12.4169086 1.69633333,12.054478 C1.88125,11.9966308 2.07958333,12.1424294 2.07958333,12.3360405 C2.07958333,12.4788878 1.98158333,12.5981239 1.84858333,12.6252767 C0.91525,12.9292697 0.583333333,13.2568739 0.583333333,13.4451725 C0.583333333,13.8382975 1.82291667,14.5171169 4.57916667,14.7980892 C5.08368739,14.8532165 5.61946642,14.8899603 6.18017556,14.9079547 L5.71677742,14.5561087 C5.58786075,14.4581226 5.56161075,14.2733656 5.65844409,14.1429142 C5.75527742,14.0124629 5.93786075,13.9864906 6.06677742,14.0838865 L7.23344409,14.9693031 C7.30694409,15.0247892 7.35011075,15.1127406 7.35011075,15.2054142 C7.35011075,15.2980879 7.30694409,15.3860392 7.23344409,15.4415254 L6.06677742,16.326942 C6.01427742,16.3664906 5.95302742,16.3859698 5.89177742,16.3859698 C5.80311075,16.3859698 5.71561075,16.3452406 5.65844409,16.2679142 C5.56161075,16.1374629 5.58786075,15.9527059 5.71677742,15.8547198 L6.18569069,15.4986863 Z" id="Combined-Shape" stroke="#FFFFFF" stroke-width="0.3"></path>
                <path d="M10.6914435,15.4235879 C10.5409435,15.4235879 10.4131935,15.3067129 10.4009435,15.1526504 C10.3881102,14.990324 10.5076935,14.8474768 10.6681102,14.8344907 C13.6722768,14.5859838 15.0722768,13.8593518 15.0722768,13.4461574 C15.0722768,13.2560879 14.7345268,12.9249421 13.7819435,12.6179976 C13.6285268,12.5684143 13.5439435,12.4025463 13.5923602,12.2473032 C13.6413602,12.0920601 13.8046935,12.0064699 13.9586935,12.0554629 C15.0845268,12.4178935 15.6556102,12.8859838 15.6556102,13.4461574 C15.6556102,14.9011921 11.8744435,15.3267824 10.7153602,15.4229976 C10.7071935,15.4235879 10.6990268,15.4235879 10.6914435,15.4235879 Z" id="Path" stroke="#FFFFFF" stroke-width="0.3"></path>
            </g>
        </g>
    </g>
</svg>