<?xml version="1.0" encoding="UTF-8"?>
<svg width="19px" height="17px" viewBox="0 0 19 17" version="1.1" xmlns="http://www.w3.org/2000/svg" xmlns:xlink="http://www.w3.org/1999/xlink">
    <!-- Generator: Sketch 52.2 (67145) - http://www.bohemiancoding.com/sketch -->
    <title>3D video</title>
    <desc>Created with Sketch.</desc>
    <g id="Page-1" stroke="none" stroke-width="1" fill="none" fill-rule="evenodd">
        <g id="Artboard" transform="translate(-150.000000, -103.000000)">
            <g id="3D-video" transform="translate(151.000000, 104.000000)">
                <path d="M17.7566667,15.22 L17.0494444,13.7391667 L16.6605556,13.9247222 L17.08,14.8030556 L13.5783333,13.0302778 L13.5783333,7.68666667 C13.5783333,7.61333333 13.5408333,7.54472222 13.4788889,7.50527778 C13.4702778,7.49972222 13.4608333,7.49666667 13.4519444,7.4925 L13.4527778,7.49083333 L9.02722222,5.46138889 L9.02722222,1.78972222 L9.535,2.44861111 L9.87638889,2.18555556 L8.9825,1.02583333 C8.90083333,0.919722222 8.72277778,0.919722222 8.64111111,1.02583333 L7.74722222,2.18555556 L8.08861111,2.44861111 L8.59638889,1.78972222 L8.59638889,5.46222222 L4.21388889,7.49111111 L4.21472222,7.4925 C4.20583333,7.49666667 4.19666667,7.49972222 4.18833333,7.505 C4.12638889,7.54444444 4.08888889,7.61305556 4.08888889,7.68638889 L4.08888889,13.0861111 L0.697777778,14.8030556 L1.11722222,13.9247222 L0.728333333,13.7391667 L0.0211111111,15.22 C-0.00777777778,15.2802778 -0.00694444444,15.3505556 0.0233333333,15.41 C0.0536111111,15.4697222 0.109722222,15.5119444 0.175277778,15.5244444 L1.7875,15.8313889 L1.86833333,15.4080556 L0.8425,15.2127778 L4.28583333,13.4694444 L8.76583333,15.5316667 L8.76666667,15.5297222 C8.795,15.5427778 8.825,15.5513889 8.85583333,15.5513889 C8.88666667,15.5513889 8.91777778,15.5447222 8.94666667,15.5313889 L13.44,13.4430556 L16.9352778,15.2127778 L15.9094444,15.4080556 L15.99,15.8313889 L17.6027778,15.5244444 C17.6683333,15.5119444 17.7244444,15.4697222 17.7547222,15.41 C17.7847222,15.3505556 17.7855556,15.2802778 17.7566667,15.22 Z M4.51972222,8.02305556 L8.64,9.91944444 L8.64,15 L4.51972222,13.1030556 L4.51972222,8.02305556 Z M8.83388889,9.53444444 L4.81805556,7.68611111 L8.81222222,5.83694444 L12.8469444,7.68722222 L8.83388889,9.53444444 Z M13.1477778,13.1036111 L9.07083333,14.9983333 L9.07083333,9.89972222 L13.1477778,8.02333333 L13.1477778,13.1036111 Z" id="Shape" stroke="#FFFFFF" stroke-width="0.1" fill="#231F20" fill-rule="nonzero" stroke-linecap="round" stroke-linejoin="round"></path>
                <path d="M16.0501574,2.68988244 C16.0073623,2.79571196 15.925904,2.87873844 15.8199491,2.92375984 L12.6560602,4.87195857 L12.5958519,4.91844171 C12.5149838,4.99620594 12.4001748,5.02924112 12.2912685,5.00497634 C12.1100533,4.96638657 11.9943588,4.78863975 12.0336123,4.60913885 L12.0418762,4.57113377 L12.0185602,0.476817548 L12.0088206,0.395837498 C11.9825533,0.287084508 12.015904,0.171022848 12.0961817,0.0926739194 C12.1593415,0.0306964086 12.2419803,0 12.3246192,0 C12.4084387,0 12.4922581,0.0315734489 12.555713,0.0950126934 L15.7700706,2.1130823 L15.8202442,2.13910116 C15.9220672,2.18236848 16.0023449,2.2618868 16.0460255,2.36274643 C16.0914769,2.46799126 16.0926574,2.58405291 16.0501574,2.68988244 Z" id="Path" stroke="#000000" stroke-width="0.3"></path>
            </g>
        </g>
    </g>
</svg>