<?xml version="1.0" encoding="UTF-8"?>
<svg width="19px" height="18px" viewBox="0 0 19 18" version="1.1" xmlns="http://www.w3.org/2000/svg" xmlns:xlink="http://www.w3.org/1999/xlink">
    <!-- Generator: Sketch 52.2 (67145) - http://www.bohemiancoding.com/sketch -->
    <title>device</title>
    <desc>Created with Sketch.</desc>
    <g id="Page-1" stroke="none" stroke-width="1" fill="none" fill-rule="evenodd">
        <g id="Artboard" transform="translate(-94.000000, -141.000000)" stroke-width="0.3">
            <g id="device" transform="translate(95.000000, 142.000000)">
                <path d="M9,16 L1.66666667,16 C0.748,16 0,15.252 0,14.3333333 L0,1.66666667 C0,0.748 0.748,0 1.66666667,0 L9,0 C9.59866667,0 10.1373333,0.311333333 10.4413333,0.832 C10.534,0.990666667 10.4806667,1.19466667 10.3213333,1.288 C10.1626667,1.38133333 9.95866667,1.328 9.86533333,1.168 C9.682,0.854 9.35866667,0.666666667 9,0.666666667 L1.66666667,0.666666667 C1.11533333,0.666666667 0.666666667,1.11533333 0.666666667,1.66666667 L0.666666667,14.3333333 C0.666666667,14.8846667 1.11533333,15.3333333 1.66666667,15.3333333 L9,15.3333333 C9.55133333,15.3333333 10,14.8846667 10,14.3333333 L10,9 C10,8.81590508 10.1492384,8.66666667 10.3333333,8.66666667 L10.3333333,8.66666667 C10.5174282,8.66666667 10.6666667,8.81590508 10.6666667,9 L10.6666667,14.3333333 C10.6666667,15.252 9.91866667,16 9,16 Z" id="Path" stroke="#FFFFFF" fill="#000000"></path>
                <path d="M0,12.5 L9.5,12.5" id="Line" stroke="#000000" stroke-linecap="square" transform="translate(5.000000, 12.500000) scale(-1, 1) translate(-5.000000, -12.500000) "></path>
                <path d="M7,5.33333333 L8.66666667,5.33333333 C8.85066667,5.33333333 9,5.48266667 9,5.66666667 C9,5.85066667 8.85066667,6 8.66666667,6 L7,6 L7,7.66666667 C7,7.85066667 7.14933333,8 7.33333333,8 L9.688,8 C9.78733333,8 9.88066667,7.95666667 9.944,7.88 L10.8986667,6.734 C11.0886667,6.506 11.3686667,6.37466667 11.6666667,6.37466667 C11.9646667,6.37466667 12.2446667,6.506 12.4346667,6.73466667 L13.3893333,7.88 C13.4533333,7.95666667 13.546,8 13.6453333,8 L16,8 C16.184,8 16.3333333,7.85066667 16.3333333,7.66666667 L16.3333333,6 L14.6666667,6 C14.4826667,6 14.3333333,5.85066667 14.3333333,5.66666667 C14.3333333,5.48266667 14.4826667,5.33333333 14.6666667,5.33333333 L16.3333333,5.33333333 L16.3333333,3.66666667 C16.3333333,3.48266667 16.184,3.33333333 16,3.33333333 L7.33333333,3.33333333 C7.14933333,3.33333333 7,3.48266667 7,3.66666667 L7,5.33333333 Z M7.66666667,2.66666667 L7.66666667,1.66666667 C7.66666667,1.11533333 8.11533333,0.666666667 8.66666667,0.666666667 L14.6666667,0.666666667 C15.218,0.666666667 15.6666667,1.11533333 15.6666667,1.66666667 L15.6666667,2.66666667 L16,2.66666667 C16.5513333,2.66666667 17,3.11533333 17,3.66666667 L17,7.66666667 C17,8.218 16.5513333,8.66666667 16,8.66666667 L13.6453333,8.66666667 C13.348,8.66666667 13.0673333,8.53533333 12.8773333,8.30666667 L11.9226667,7.16133333 C11.836,7.05666667 11.7253333,7.04133333 11.6666667,7.04133333 C11.608,7.04133333 11.498,7.05666667 11.4106667,7.16133333 L10.456,8.30733333 C10.2653333,8.53533333 9.98533333,8.66666667 9.688,8.66666667 L7.33333333,8.66666667 C6.782,8.66666667 6.33333333,8.218 6.33333333,7.66666667 L6.33333333,3.66666667 C6.33333333,3.11533333 6.782,2.66666667 7.33333333,2.66666667 L7.66666667,2.66666667 Z M8.33333333,2.66666667 L15,2.66666667 L15,1.66666667 C15,1.48266667 14.8506667,1.33333333 14.6666667,1.33333333 L8.66666667,1.33333333 C8.48266667,1.33333333 8.33333333,1.48266667 8.33333333,1.66666667 L8.33333333,2.66666667 Z" id="Combined-Shape" stroke="#FFFFFF" fill="#000000" fill-rule="nonzero"></path>
            </g>
        </g>
    </g>
</svg>