<?xml version="1.0" encoding="UTF-8"?>
<svg width="17px" height="17px" viewBox="0 0 17 17" version="1.1" xmlns="http://www.w3.org/2000/svg" xmlns:xlink="http://www.w3.org/1999/xlink">
    <!-- Generator: Sketch 52.2 (67145) - http://www.bohemiancoding.com/sketch -->
    <title>Group 2</title>
    <desc>Created with Sketch.</desc>
    <g id="Page-1" stroke="none" stroke-width="1" fill="none" fill-rule="evenodd">
        <g id="Artboard" transform="translate(-49.000000, -134.000000)">
            <g id="Group-2" transform="translate(49.000000, 134.000000)">
                <g id="Menu" stroke-width="0.3">
                    <rect id="Rectangle" stroke="#000000" x="1.83888889" y="2.15" width="3.96666667" height="3.96666667" rx="0.8"></rect>
                    <rect id="Rectangle" stroke="#000000" x="6.775" y="2.27777778" width="3.96666667" height="3.96666667" rx="0.8"></rect>
                    <rect id="Rectangle" stroke="#000000" x="1.775" y="7.15" width="3.96666667" height="3.96666667" rx="0.8"></rect>
                    <g id="Group" transform="translate(6.000000, 7.000000)">
                        <path d="M2.07743465,0.15 L0.775,1.45375422 L0.775,3.46666667 C0.775,3.82565175 1.06601491,4.11666667 1.425,4.11666667 L4.09166667,4.11666667 C4.45065175,4.11666667 4.74166667,3.82565175 4.74166667,3.46666667 L4.74166667,0.8 C4.74166667,0.441014913 4.45065175,0.15 4.09166667,0.15 L2.07743465,0.15 Z" id="Rectangle" stroke="#000000" transform="translate(2.758333, 2.133333) scale(-1, 1) rotate(-90.000000) translate(-2.758333, -2.133333) "></path>
                        <path d="M3.5,4.26666667 L5,2.61701954" id="Line-2" stroke="#FFFFFF" stroke-linecap="square"></path>
                    </g>
                    <rect id="Rectangle" stroke="#000000" x="0.45" y="0.75" width="15.7" height="15.7" rx="0.8"></rect>
                </g>
                <g id="gear" transform="translate(8.100000, 8.900000)" fill="#000000" fill-rule="nonzero">
                    <path d="M3.97432872,6.621875 L2.7275346,6.621875 C2.64348107,6.621875 2.58744538,6.55152868 2.58744538,6.48118236 L2.58744538,5.84806548 C2.43334723,5.80585768 2.27924908,5.73551136 2.13915986,5.66516504 L1.69087433,6.11538149 C1.66285649,6.14352002 1.63483864,6.15758929 1.59281187,6.15758929 C1.55078511,6.15758929 1.52276726,6.14352002 1.49474942,6.11538149 L0.612187291,5.22901786 C0.556151601,5.1727408 0.556151601,5.08832522 0.612187291,5.03204816 L1.04646389,4.59590097 C0.962410356,4.45520833 0.906374666,4.30030574 0.850338976,4.13161526 L0.261964226,4.13161526 C0.17791069,4.13161526 0.121875,4.06126894 0.121875,3.99092262 L0.121875,2.73875812 C0.121875,2.65434253 0.191919613,2.59806548 0.261964226,2.59806548 L0.836330053,2.59806548 C0.878356821,2.42923431 0.948401434,2.26040314 1.03245497,2.10564123 L0.626196214,1.69763258 C0.570160523,1.64135552 0.570160523,1.55693994 0.626196214,1.50066288 L1.50875834,0.614299242 C1.56479403,0.558022186 1.66285649,0.558022186 1.70488325,0.614299242 L2.09713309,1.0223079 C2.25123124,0.937892316 2.41933831,0.867545996 2.6014543,0.811268939 L2.6014543,0.262567641 C2.6014543,0.178152056 2.67149891,0.121875 2.74154353,0.121875 L3.98833764,0.121875 C4.07239117,0.121875 4.12842687,0.19222132 4.12842687,0.262567641 L4.12842687,0.811268939 C4.29653394,0.867545996 4.46464101,0.937892316 4.63274808,1.0223079 L5.02499791,0.628368506 C5.0810336,0.57209145 5.17909606,0.57209145 5.22112283,0.628368506 L6.10368495,1.51473214 C6.15972064,1.5710092 6.15972064,1.65542478 6.10368495,1.71170184 L5.6974262,2.1197105 C5.78147973,2.2744724 5.83751542,2.44330357 5.89341102,2.61213474 L6.48178577,2.61213474 C6.5659794,2.61213474 6.621875,2.68248106 6.621875,2.75282738 L6.621875,4.00499188 C6.621875,4.08940747 6.55183039,4.14568452 6.48178577,4.14568452 L5.87954219,4.14568452 C5.8235065,4.30044643 5.76747081,4.45520833 5.68341727,4.60997024 L6.11769388,5.04611742 C6.14571172,5.07425595 6.15972064,5.10239448 6.15972064,5.14460227 C6.15972064,5.18695076 6.14571172,5.21494859 6.11769388,5.24308712 L5.23513175,6.12945076 C5.17909606,6.18572781 5.09504253,6.18572781 5.03900683,6.12945076 L4.59072131,5.67923431 C4.45063209,5.74958063 4.29653394,5.81992695 4.14243579,5.86213474 L4.14243579,6.49525162 C4.11441794,6.56559794 4.05838225,6.621875 3.97432872,6.621875 Z M2.88163275,6.34048972 L3.83423949,6.34048972 L3.83423949,5.73551136 C3.83423949,5.66516504 3.87626626,5.60902868 3.94631087,5.59481872 C4.15644471,5.53868236 4.3385607,5.46833604 4.5206767,5.35564123 C4.57671239,5.3276434 4.646757,5.3276434 4.68878377,5.38377976 L5.10905145,5.80585768 L5.78147973,5.13053301 L5.37522098,4.72252435 C5.33319421,4.68031656 5.31918529,4.60997024 5.36121205,4.55369318 C5.47328344,4.37065206 5.55733697,4.17382305 5.61337266,3.96278409 C5.62752167,3.90650703 5.68341727,3.86429924 5.75346189,3.86429924 L6.32782771,3.86429924 L6.32782771,2.90758929 L5.78147973,2.90758929 C5.71143512,2.90758929 5.65553952,2.86538149 5.64139051,2.79503517 C5.58549491,2.56992695 5.50130128,2.37295725 5.40323882,2.17598755 C5.37536107,2.1197105 5.37536107,2.04936418 5.43125667,2.00715639 L5.80949758,1.62728626 L5.13706929,0.95196158 L4.77283731,1.31776245 C4.73081054,1.35997024 4.66076592,1.3740395 4.60487032,1.33183171 C4.40860532,1.2192776 4.19847148,1.12079275 3.97432872,1.06451569 C3.91829303,1.05044643 3.86225734,0.994169372 3.86225734,0.923823052 L3.86225734,0.403260281 L2.9096506,0.403260281 L2.9096506,0.923823052 C2.9096506,0.994169372 2.86762383,1.05044643 2.79757922,1.06451569 C2.57343646,1.12079275 2.36330262,1.20520833 2.1671777,1.33183171 C2.11114201,1.35997024 2.0410974,1.35997024 1.99907063,1.31776245 L1.63483864,0.95196158 L0.962410356,1.62728626 L1.34065127,2.00715639 C1.38267803,2.04936418 1.39668696,2.1197105 1.36866911,2.17598755 C1.25659773,2.37295725 1.1725442,2.56992695 1.13051743,2.79503517 C1.11650851,2.86538149 1.06047281,2.90758929 0.990428202,2.90758929 L0.402053452,2.90758929 L0.402053452,3.86429924 L0.976419279,3.86429924 C1.04646389,3.86429924 1.10249958,3.90650703 1.11650851,3.96278409 C1.1725442,4.17382305 1.25659773,4.37065206 1.36866911,4.55369318 C1.39668696,4.60997024 1.39668696,4.68031656 1.35466019,4.72252435 L0.948401434,5.13053301 L1.62082972,5.80585768 L2.0410974,5.38377976 C2.08312416,5.34157197 2.15316878,5.3276434 2.20920447,5.35564123 C2.39132046,5.45412608 2.58744538,5.53868236 2.7835703,5.59481872 C2.83960599,5.60902868 2.89564168,5.66516504 2.89564168,5.73551136 L2.89564168,6.34048972 L2.88163275,6.34048972 Z M3.35793612,4.63810877 C2.65748999,4.63810877 2.09713309,4.0753382 2.09713309,3.371875 C2.09713309,2.6684118 2.65748999,2.10564123 3.35793612,2.10564123 C4.05838225,2.10564123 4.61873916,2.6684118 4.61873916,3.371875 C4.61873916,4.0753382 4.05838225,4.63810877 3.35793612,4.63810877 Z M3.35793612,2.38702652 C2.82559706,2.38702652 2.37731154,2.8231737 2.37731154,3.371875 C2.37731154,3.90650703 2.81158814,4.35672348 3.35793612,4.35672348 C3.89027518,4.35672348 4.3385607,3.9205763 4.3385607,3.371875 C4.3385607,2.83724297 3.89027518,2.38702652 3.35793612,2.38702652 Z" id="Shape"></path>
                </g>
            </g>
        </g>
    </g>
</svg>